<?xml version="1.0" encoding="utf-8"?>
<!-- Generator: Adobe Illustrator 22.1.0, SVG Export Plug-In . SVG Version: 6.00 Build 0)  -->
<svg version="1.2" baseProfile="tiny" id="Livello_1"
	 xmlns="http://www.w3.org/2000/svg" xmlns:xlink="http://www.w3.org/1999/xlink" x="0px" y="0px" viewBox="0 0 196 192"
	 xml:space="preserve">
<path fill="none" stroke="#EF2258" stroke-width="4" stroke-miterlimit="10" d="M355.8,92.2c0-13.8-11.2-25-25-25
	c-7.5,0-14.2,3.3-18.8,8.5c-4.6-5.2-11.3-8.5-18.8-8.5c-13.8,0-25,11.2-25,25c0,2.2,0.3,4.3,0.8,6.3h0c5.9,26.1,42.9,52.2,42.9,52.2
	s37-26.1,42.9-52.2l0,0C355.5,96.5,355.8,94.4,355.8,92.2z"/>
<g>
	<path fill="none" d="M98,161.8c-36.3,0-65.8-29.4-65.8-65.8S61.7,30.2,98,30.2s65.8,29.4,65.8,65.8S134.3,161.8,98,161.8"/>
	
		<text transform="matrix(-0.9878 -0.1557 0.1557 -0.9878 92.5678 161.7152)" fill="none" stroke="#EF2258" stroke-linejoin="round" stroke-miterlimit="10" font-family="'OpenSans-CondensedBold'" font-size="33px">I</text>
	
		<text transform="matrix(-0.9523 -0.3051 0.3051 -0.9523 84.2328 160.6493)" fill="none" stroke="#EF2258" stroke-linejoin="round" stroke-miterlimit="10" font-family="'OpenSans-CondensedBold'" font-size="33px">L</text>
	
		<text transform="matrix(-0.8995 -0.4368 0.4368 -0.8995 72.9818 156.9604)" fill="none" stroke="#EF2258" stroke-linejoin="round" stroke-miterlimit="10" font-family="'OpenSans-CondensedBold'" font-size="33px"> </text>
	
		<text transform="matrix(-0.8284 -0.5601 0.5601 -0.8284 66.8109 154.288)" fill="none" stroke="#EF2258" stroke-linejoin="round" stroke-miterlimit="10" font-family="'OpenSans-CondensedBold'" font-size="33px">F</text>
	
		<text transform="matrix(-0.7126 -0.7016 0.7016 -0.7126 56.8822 147.7851)" fill="none" stroke="#EF2258" stroke-linejoin="round" stroke-miterlimit="10" font-family="'OpenSans-CondensedBold'" font-size="33px">E</text>
	
		<text transform="matrix(-0.5722 -0.8201 0.8201 -0.5722 47.9379 139.1669)" fill="none" stroke="#EF2258" stroke-linejoin="round" stroke-miterlimit="10" font-family="'OpenSans-CondensedBold'" font-size="33px">S</text>
	
		<text transform="matrix(-0.4103 -0.912 0.912 -0.4103 40.9311 129.4467)" fill="none" stroke="#EF2258" stroke-linejoin="round" stroke-miterlimit="10" font-family="'OpenSans-CondensedBold'" font-size="33px">T</text>
	
		<text transform="matrix(-0.259 -0.9659 0.9659 -0.259 35.769 117.8485)" fill="none" stroke="#EF2258" stroke-linejoin="round" stroke-miterlimit="10" font-family="'OpenSans-CondensedBold'" font-size="33px">I</text>
	
		<text transform="matrix(-8.453786e-02 -0.9964 0.9964 -8.453786e-02 33.1898 109.9164)" fill="none" stroke="#EF2258" stroke-linejoin="round" stroke-miterlimit="10" font-family="'OpenSans-CondensedBold'" font-size="33px">V</text>
	
		<text transform="matrix(0.1374 -0.9905 0.9905 0.1374 31.6654 95.6122)" fill="none" stroke="#EF2258" stroke-linejoin="round" stroke-miterlimit="10" font-family="'OpenSans-CondensedBold'" font-size="33px">A</text>
	
		<text transform="matrix(0.3395 -0.9406 0.9406 0.3395 33.8852 79.9135)" fill="none" stroke="#EF2258" stroke-linejoin="round" stroke-miterlimit="10" font-family="'OpenSans-CondensedBold'" font-size="33px">L</text>
	
		<text transform="matrix(0.4687 -0.8834 0.8834 0.4687 37.9691 68.83)" fill="none" stroke="#EF2258" stroke-linejoin="round" stroke-miterlimit="10" font-family="'OpenSans-CondensedBold'" font-size="33px"> </text>
	
		<text transform="matrix(0.6167 -0.7872 0.7872 0.6167 40.5326 62.7338)" fill="none" stroke="#EF2258" stroke-linejoin="round" stroke-miterlimit="10" font-family="'OpenSans-CondensedBold'" font-size="33px">D</text>
	
		<text transform="matrix(0.7718 -0.6359 0.6359 0.7718 50.7924 49.7001)" fill="none" stroke="#EF2258" stroke-linejoin="round" stroke-miterlimit="10" font-family="'OpenSans-CondensedBold'" font-size="33px">E</text>
	
		<text transform="matrix(0.874 -0.486 0.486 0.874 60.2982 41.7187)" fill="none" stroke="#EF2258" stroke-linejoin="round" stroke-miterlimit="10" font-family="'OpenSans-CondensedBold'" font-size="33px">L</text>
	
		<text transform="matrix(0.9461 -0.3238 0.3238 0.9461 70.4242 35.9242)" fill="none" stroke="#EF2258" stroke-linejoin="round" stroke-miterlimit="10" font-family="'OpenSans-CondensedBold'" font-size="33px">L</text>
	
		<text transform="matrix(0.9779 -0.2089 0.2089 0.9779 80.8891 32.4076)" fill="none" stroke="#EF2258" stroke-linejoin="round" stroke-miterlimit="10" font-family="'OpenSans-CondensedBold'" font-size="33px">’</text>
	
		<text transform="matrix(0.9988 -4.904537e-02 4.904537e-02 0.9988 85.9184 30.7626)" fill="none" stroke="#EF2258" stroke-linejoin="round" stroke-miterlimit="10" font-family="'OpenSans-CondensedBold'" font-size="33px">A</text>
	
		<text transform="matrix(0.9701 0.2427 -0.2427 0.9701 101.4613 29.0727)" fill="none" stroke="#EF2258" stroke-linejoin="round" stroke-miterlimit="10" font-family="'OpenSans-CondensedBold'" font-size="33px">M</text>
	
		<text transform="matrix(0.8491 0.5283 -0.5283 0.8491 124.3461 34.9443)" fill="none" stroke="#EF2258" stroke-linejoin="round" stroke-miterlimit="10" font-family="'OpenSans-CondensedBold'" font-size="33px">O</text>
	
		<text transform="matrix(0.697 0.717 -0.717 0.697 139.3998 44.2587)" fill="none" stroke="#EF2258" stroke-linejoin="round" stroke-miterlimit="10" font-family="'OpenSans-CondensedBold'" font-size="33px">R</text>
	
		<text transform="matrix(0.5372 0.8435 -0.8435 0.5372 149.725 54.8027)" fill="none" stroke="#EF2258" stroke-linejoin="round" stroke-miterlimit="10" font-family="'OpenSans-CondensedBold'" font-size="33px">E</text>
	
		<text transform="matrix(0.4081 0.9129 -0.9129 0.4081 156.391 65.4706)" fill="none" stroke="#EF2258" stroke-linejoin="round" stroke-miterlimit="10" font-family="'OpenSans-CondensedBold'" font-size="33px"> </text>
	
		<text transform="matrix(0.2944 0.9557 -0.9557 0.2944 159.3129 71.6347)" fill="none" stroke="#EF2258" stroke-linejoin="round" stroke-miterlimit="10" font-family="'OpenSans-CondensedBold'" font-size="33px">-</text>
	
		<text transform="matrix(0.1762 0.9843 -0.9843 0.1762 162.0004 80.3232)" fill="none" stroke="#EF2258" stroke-linejoin="round" stroke-miterlimit="10" font-family="'OpenSans-CondensedBold'" font-size="33px"> </text>
	
		<text transform="matrix(1.619598e-02 0.9999 -0.9999 1.619598e-02 163.601 86.7397)" fill="none" stroke="#EF2258" stroke-linejoin="round" stroke-miterlimit="10" font-family="'OpenSans-CondensedBold'" font-size="33px">D</text>
	
		<text transform="matrix(-0.1859 0.9826 -0.9826 -0.1859 163.5209 103.435)" fill="none" stroke="#EF2258" stroke-linejoin="round" stroke-miterlimit="10" font-family="'OpenSans-CondensedBold'" font-size="33px">I</text>
	
		<text transform="matrix(-0.365 0.931 -0.931 -0.365 162.5063 111.6513)" fill="none" stroke="#EF2258" stroke-linejoin="round" stroke-miterlimit="10" font-family="'OpenSans-CondensedBold'" font-size="33px">G</text>
	
		<text transform="matrix(-0.5312 0.8473 -0.8473 -0.5312 156.3783 126.6825)" fill="none" stroke="#EF2258" stroke-linejoin="round" stroke-miterlimit="10" font-family="'OpenSans-CondensedBold'" font-size="33px">I</text>
	
		<text transform="matrix(-0.6589 0.7522 -0.7522 -0.6589 152.1732 133.9438)" fill="none" stroke="#EF2258" stroke-linejoin="round" stroke-miterlimit="10" font-family="'OpenSans-CondensedBold'" font-size="33px">T</text>
	
		<text transform="matrix(-0.7936 0.6084 -0.6084 -0.7936 144.9643 142.8481)" fill="none" stroke="#EF2258" stroke-linejoin="round" stroke-miterlimit="10" font-family="'OpenSans-CondensedBold'" font-size="33px">A</text>
	
		<text transform="matrix(-0.9019 0.432 -0.432 -0.9019 132.35 152.4662)" fill="none" stroke="#EF2258" stroke-linejoin="round" stroke-miterlimit="10" font-family="'OpenSans-CondensedBold'" font-size="33px">L</text>
	
		<text transform="matrix(-0.9538 0.3003 -0.3003 -0.9538 121.6576 157.5023)" fill="none" stroke="#EF2258" stroke-linejoin="round" stroke-miterlimit="10" font-family="'OpenSans-CondensedBold'" font-size="33px"> </text>
	
		<text transform="matrix(-0.9832 0.1824 -0.1824 -0.9832 115.1938 159.6942)" fill="none" stroke="#EF2258" stroke-linejoin="round" stroke-miterlimit="10" font-family="'OpenSans-CondensedBold'" font-size="33px">-</text>
	<circle fill="none" stroke="#EF2258" stroke-miterlimit="10" cx="98" cy="96" r="58.9"/>
</g>
<rect fill="none" width="196" height="192"/>
</svg>
