<?xml version="1.0" encoding="utf-8"?>
<!-- Generator: Adobe Illustrator 22.1.0, SVG Export Plug-In . SVG Version: 6.00 Build 0)  -->
<svg version="1.1" id="Livello_1" xmlns="http://www.w3.org/2000/svg" xmlns:xlink="http://www.w3.org/1999/xlink" x="0px" y="0px"
	 viewBox="0 0 196 192" style="enable-background:new 0 0 196 192;" xml:space="preserve">
<style type="text/css">
	.st0{fill:none;stroke:#EF2258;stroke-width:4;stroke-miterlimit:10;}
	.st1{fill:none;}
	.st2{enable-background:new    ;}
	.st3{fill:none;stroke:#EF2258;stroke-linejoin:round;stroke-miterlimit:10;}
	.st4{fill:none;stroke:#EF2258;stroke-miterlimit:10;}
</style>
<path class="st0" d="M355.8,92.2c0-13.8-11.2-25-25-25c-7.5,0-14.2,3.3-18.8,8.5c-4.6-5.2-11.3-8.5-18.8-8.5c-13.8,0-25,11.2-25,25
	c0,2.2,0.3,4.3,0.8,6.3l0,0c5.9,26.1,42.9,52.2,42.9,52.2s37-26.1,42.9-52.2l0,0C355.5,96.5,355.8,94.4,355.8,92.2z"/>
<g>
	<path class="st1" d="M98,161.8c-36.3,0-65.8-29.4-65.8-65.8S61.7,30.2,98,30.2s65.8,29.4,65.8,65.8S134.3,161.8,98,161.8"/>
	<g class="st2">
		<path class="st3" d="M89.7,161.3l-3.7,23.3l-4.1-0.6l3.7-23.3L89.7,161.3z"/>
	</g>
	<g class="st2">
		<path class="st3" d="M82.3,160l-7.2,22.4l-4.2-1.3l6-18.8l-5.8-1.9l1.2-3.7L82.3,160z"/>
	</g>
	<g class="st2">
	</g>
	<g class="st2">
		<path class="st3" d="M61.5,150.7l3.6,2.4l-13.2,19.5l-8.7-5.9l2.1-3.1l5.1,3.5l3.7-5.4l-4.8-3.2l2.1-3.1l4.8,3.2L61.5,150.7z"/>
	</g>
	<g class="st2">
		<path class="st3" d="M47.8,138.9l7.6,7.4l-16.5,16.8l-7.6-7.4L34,153l4.4,4.4l3.9-4l-4.1-4.1l2.7-2.7l4.1,4.1l4.6-4.7l-4.4-4.4
			L47.8,138.9z"/>
	</g>
	<g class="st2">
		<path class="st3" d="M35.3,132.4c1.8-1.3,3.5-1.8,5.1-1.5c1.6,0.2,3,1.2,4.2,2.9c1.2,1.7,1.8,3.3,2,5l-3.6,2.5
			c-0.1-2.1-0.5-3.8-1.4-5c-0.5-0.7-1-1.1-1.7-1.2s-1.3,0.1-1.9,0.6c-0.6,0.4-1.1,1.1-1.3,1.9c-0.2,0.8-0.4,1.9-0.3,3.3
			c0,1.2-0.1,2.2-0.3,3c-0.2,0.8-0.6,1.5-1.1,2.2c-0.5,0.7-1.2,1.3-2,1.9c-1.7,1.2-3.3,1.6-4.9,1.4s-3-1.1-4-2.7
			c-1-1.5-1.6-3.2-1.7-5.1l3.7-0.8c0,0.6,0.1,1.2,0.3,1.8c0.1,0.6,0.4,1.2,0.7,1.7c0.4,0.6,0.9,0.9,1.5,0.9c0.6,0,1.2-0.2,1.9-0.6
			c0.7-0.5,1.1-1,1.3-1.8s0.3-1.8,0.3-3.1c0-1.8,0.2-3.3,0.8-4.4C33.3,134.1,34.2,133.2,35.3,132.4z"/>
	</g>
	<g class="st2">
		<path class="st3" d="M37.1,121l1.8,4l-18,8.1l1.9,4.1l-3.5,1.6l-5.5-12.2l3.5-1.6l1.9,4.1L37.1,121z"/>
	</g>
	<g class="st2">
		<path class="st3" d="M35,115.1l-22.8,6.1l-1.1-4l22.8-6.1L35,115.1z"/>
	</g>
	<g class="st2">
		<path class="st3" d="M8.7,99.7l-0.4-4.4l23.9,3.5l0.5,5.6l-23,7.5l-0.4-4.4l14.1-4.3c1.2-0.4,2.9-0.8,5.2-1.3
			c-2-0.1-3.7-0.2-5.3-0.4L8.7,99.7z"/>
	</g>
	<g class="st2">
		<path class="st3" d="M33.5,82.5L27.4,83l-0.8,6.1l5.7,2.2l-0.6,4.3L9,86.6l0.8-5.9l24.2-2.5L33.5,82.5z M23.4,83.3l-5.6,0.5
			c-0.3,0-1.2,0.1-2.6,0.2c-1.4,0.1-2.3,0.1-2.7,0.1c0.9,0.3,1.9,0.6,3,0.9c1.1,0.4,3.5,1.3,7.3,2.7L23.4,83.3z"/>
	</g>
	<g class="st2">
		<path class="st3" d="M34.6,78l-22.2-8l1.5-4.1l18.6,6.7l2.1-5.7l3.6,1.3L34.6,78z"/>
	</g>
	<g class="st2">
	</g>
	<g class="st2">
		<path class="st3" d="M41.6,41.9c3.1,2.4,4.9,4.9,5.6,7.4c0.6,2.5,0,4.9-1.8,7.3l-3.6,4.5L23.3,46.6l3.9-5c1.7-2.2,3.8-3.2,6.3-3.2
			C36,38.5,38.7,39.6,41.6,41.9z M38.9,45.5c-4.1-3.2-7.1-3.7-8.9-1.4L29,45.5l12.5,9.8l0.9-1.1c1-1.3,1.2-2.6,0.6-4
			C42.4,48.7,41,47.2,38.9,45.5z"/>
	</g>
	<g class="st2">
		<path class="st3" d="M60.6,41.6l-8.2,6.8l-15-18.2l8.2-6.8l2.4,2.9l-4.8,4l3.6,4.3l4.5-3.7l2.4,2.9l-4.5,3.7l4.1,5l4.8-4
			L60.6,41.6z"/>
	</g>
	<g class="st2">
		<path class="st3" d="M62.1,40.7L50.7,20.1l3.8-2.1l9.6,17.2l5.3-3l1.9,3.4L62.1,40.7z"/>
	</g>
	<g class="st2">
		<path class="st3" d="M72.4,35.3L64.8,13l4.1-1.4l6.4,18.7l5.7-2l1.2,3.6L72.4,35.3z"/>
	</g>
	<g class="st2">
		<path class="st3" d="M82,8.1l0.3,0.3c-0.1,2.2-0.5,4.9-1.2,8.1L78,17.2c0.1-2.8,0.1-5.6-0.1-8.2L82,8.1z"/>
	</g>
	<g class="st2">
		<path class="st3" d="M99.1,30.1l-1.6-5.9l-6.1,0.3l-1.1,6l-4.4,0.2l4.7-23.9l5.9-0.3l7,23.3L99.1,30.1z M96.5,20.4L95,15
			c-0.1-0.3-0.3-1.2-0.6-2.5c-0.3-1.3-0.5-2.2-0.6-2.7c-0.1,0.9-0.2,2-0.4,3.1c-0.2,1.1-0.6,3.7-1.3,7.7L96.5,20.4z"/>
	</g>
	<g class="st2">
		<path class="st3" d="M111.6,31.6l0.5-20.5l-0.2,0c-0.2,1.5-0.4,3-0.7,4.2l-3.8,15.3l-3.9-1l5.7-22.9l6.5,1.6l-0.6,18.9l0.1,0
			l8.4-17l6.6,1.7l-5.7,22.9l-4-1l3.9-15.5c0.3-1.3,0.7-2.6,1.2-3.9l-0.1,0l-9.2,18.3L111.6,31.6z"/>
	</g>
	<g class="st2">
		<path class="st3" d="M146.1,34.6c-2.1,3.3-4.3,5.5-6.6,6.5c-2.3,1-4.7,0.8-7-0.6c-2.3-1.4-3.5-3.4-3.7-6c-0.1-2.5,0.8-5.5,2.9-8.8
			c2.1-3.3,4.3-5.5,6.6-6.5c2.3-1,4.7-0.8,7,0.7c2.3,1.4,3.5,3.4,3.7,6C149.1,28.3,148.2,31.3,146.1,34.6z M135.5,28
			c-1.4,2.3-2.2,4.2-2.4,5.7c-0.2,1.6,0.3,2.7,1.4,3.4c2.2,1.4,4.8-0.2,7.7-4.9c2.9-4.7,3.2-7.7,1-9.1c-1.1-0.7-2.4-0.6-3.7,0.2
			C138.3,24.1,137,25.7,135.5,28z"/>
	</g>
	<g class="st2">
		<path class="st3" d="M150.5,42.5l-6.6,6.4l-3.1-3.1l16.9-16.4l4,4.1c1.7,1.7,2.5,3.4,2.5,5.1c0,1.6-0.9,3.3-2.6,4.9
			c-2.1,2.1-4.3,2.8-6.6,2.2L150.9,56l-3.3-3.4l4-9.1L150.5,42.5z M153.2,39.9l0.8,0.8c0.7,0.7,1.4,1.1,2.2,1
			c0.7-0.1,1.5-0.5,2.3-1.3c0.9-0.8,1.3-1.6,1.3-2.3c0-0.7-0.3-1.4-1-2.1l-0.8-0.8L153.2,39.9z"/>
	</g>
	<g class="st2">
		<path class="st3" d="M156.5,65.5l-5.7-9l19.9-12.7l5.7,9l-3.2,2l-3.3-5.3l-4.7,3l3.1,4.9l-3.2,2l-3.1-4.9l-5.5,3.5l3.3,5.3
			L156.5,65.5z"/>
	</g>
	<g class="st2">
	</g>
	<g class="st2">
		<path class="st3" d="M166.3,70.7l3.6-1.1l2.4,7.7l-3.6,1.1L166.3,70.7z"/>
	</g>
	<g class="st2">
	</g>
	<g class="st2">
		<path class="st3" d="M175.9,103.6c-3.9,0.1-6.9-0.7-9-2.2c-2.1-1.6-3.1-3.8-3.2-6.8l-0.1-5.8l23.6-0.4l0.1,6.3
			c0,2.7-0.9,4.9-2.9,6.4C182.4,102.7,179.5,103.5,175.9,103.6z M175.7,99.1c5.3-0.1,7.9-1.6,7.8-4.5l0-1.8l-15.9,0.3l0,1.4
			c0,1.6,0.7,2.8,2.1,3.5S173,99.2,175.7,99.1z"/>
	</g>
	<g class="st2">
		<path class="st3" d="M163,106.3l23.1,4.4l-0.8,4.1l-23.1-4.4L163,106.3z"/>
	</g>
	<g class="st2">
		<path class="st3" d="M171.3,125l-2.6,6.7l-11.3-4.4c-0.1-2.2,0.3-4.4,1.2-6.5c1-2.5,2.7-4.1,5.2-4.7c2.5-0.6,5.5-0.2,9.2,1.2
			c3.5,1.4,6,3.2,7.3,5.6c1.4,2.4,1.5,4.9,0.4,7.8c-0.7,1.8-1.8,3.2-3.3,4.5l-2.8-2.6c1.2-1,2-2,2.4-3.1c0.6-1.6,0.4-3.1-0.6-4.5
			c-1-1.4-2.7-2.6-5.1-3.6c-2.5-1-4.5-1.4-6-1.2c-1.6,0.1-2.6,0.8-3.1,2.1c-0.3,0.7-0.4,1.4-0.5,2.1l5,2l1.1-2.7L171.3,125z"/>
	</g>
	<g class="st2">
		<path class="st3" d="M154.9,129.1l20,12.5l-2.2,3.5l-20-12.5L154.9,129.1z"/>
	</g>
	<g class="st2">
		<path class="st3" d="M146,140.9l2.9-3.3l14.8,13l3-3.4l2.9,2.5l-8.8,10.1l-2.9-2.5l3-3.4L146,140.9z"/>
	</g>
	<g class="st2">
		<path class="st3" d="M134.5,150.9l4.7,3.9l4.9-3.7l-2.5-5.5l3.5-2.7l9.8,22.3l-4.7,3.6l-19-15.2L134.5,150.9z M142.2,157.4
			l4.3,3.6c0.3,0.2,0.9,0.8,1.9,1.7c1,0.9,1.7,1.5,2,1.8c-0.5-0.8-0.9-1.7-1.4-2.7c-0.5-1-1.6-3.4-3.3-7.1L142.2,157.4z"/>
	</g>
	<g class="st2">
		<path class="st3" d="M130.5,153.4l10.2,21.2l-4,1.9l-8.5-17.8l-5.5,2.6l-1.7-3.5L130.5,153.4z"/>
	</g>
	<g class="st2">
	</g>
	<g class="st2">
		<path class="st3" d="M115.3,166.8l0.7,3.7l-8,1.5l-0.7-3.7L115.3,166.8z"/>
	</g>
	<circle class="st4" cx="98" cy="96" r="58.9"/>
</g>
<rect class="st1" width="196" height="192"/>
</svg>
